#!OML:ASF F:\VICON\USERDATA\INSTALL\Justin_Nancy\Justin_Nancy.ASF
:FULLY-SPECIFIED
:DEGREES
64
root 6.78588 16.8415 2.22232 -4.13967 -43.7055 23.015
lowerback 13.557 -0.815106 -10.0879
upperback 1.17392 -2.80823 -2.28113
thorax -6.00785 -1.16783 3.76793
lowerneck -17.4265 -0.84438 -10.8101
upperneck 11.8367 0.683733 5.17678
head 6.39522 0.275978 3.49681
rclavicle 4.25399e-014 2.06736e-014
rhumerus -59.5646 13.1772 -98.886
rradius 113.121
rwrist -4.37063
rhand -17.3241 28.5612
rfingers 7.12502
rthumb 8.92256 -1.23017
lclavicle 4.25399e-014 2.06736e-014
lhumerus -45.8485 -11.817 100.415
lradius 107.459
lwrist 31.6247
lhand -13.2778 7.07361
lfingers 7.12502
lthumb 12.8254 36.6596
rfemur -51.4461 -2.92507 29.4881
rtibia 45.8084
rfoot -6.54213 4.62172
rtoes -12.2766
lfemur 11.1919 -2.84388 -32.2941
ltibia 27.1876
lfoot 16.1836 -12.425
ltoes -8.41475
65
root 6.5413 16.897 2.76871 -4.87697 -43.5532 24.2725
lowerback 13.3033 -0.841004 -10.4259
upperback 1.1046 -2.87286 -2.37383
thorax -5.9218 -1.19485 3.85929
lowerneck -17.1054 -1.00986 -10.9966
upperneck 11.909 0.517131 4.85066
head 6.38149 0.153065 3.40112
rclavicle -8.74653e-015 -4.45278e-014
rhumerus -59.3328 12.663 -97.9941
rradius 112.995
rwrist -4.01038
rhand -17.5143 28.4657
rfingers 7.12502
rthumb 8.73909 -1.33343
lclavicle -8.74653e-015 -4.45278e-014
lhumerus -46.2506 -11.8357 100.203
lradius 105.78
lwrist 31.4338
lhand -13.3262 7.47148
lfingers 7.12502
lthumb 12.7787 37.0604
rfemur -50.2441 -3.65688 29.2145
rtibia 41.6995
rfoot -4.93167 3.87774
rtoes -6.43511
lfemur 10.7246 -2.51932 -33.025
ltibia 29.3091
lfoot 16.2984 -7.80593
ltoes -3.71828
66
root 6.28962 16.9385 3.30348 -5.21458 -43.4229 24.987
lowerback 12.9769 -0.732204 -10.7437
upperback 1.15099 -2.717 -2.23445
thorax -5.68973 -1.12285 4.1453
lowerneck -17.3387 -1.39778 -10.9422
upperneck 12.1656 0.0757887 4.4019
head 6.54192 -0.10192 3.20453
rclavicle -7.15625e-014 2.38542e-015
rhumerus -58.7005 12.0708 -96.8464
rradius 112.834
rwrist -3.66121
rhand -17.356 28.1826
rfingers 7.12502
rthumb 8.89178 -1.61006
lclavicle -7.15625e-014 2.38542e-015
lhumerus -46.2583 -11.9501 99.9914
lradius 103.919
lwrist 30.9138
lhand -12.9179 7.69532
lfingers 7.12502
lthumb 13.1723 37.2592
rfemur -49.0625 -3.81901 28.9383
rtibia 38.4685
rfoot -3.00447 2.57058
rtoes -7.93239
lfemur 9.99439 -0.829605 -33.0056
ltibia 32.3289
lfoot 14.0162 -4.52643
ltoes -9.65709
67
root 6.03221 16.9797 3.83437 -5.23648 -43.3493 25.3012
lowerback 12.6697 -0.551619 -10.9835
upperback 1.09164 -2.44662 -1.87212
thorax -5.59485 -0.982011 4.61153
lowerneck -17.356 -1.83118 -11.2475
upperneck 12.3131 -0.395705 4.1567
head 6.63283 -0.370159 3.12483
rclavicle 1.59028e-015 1.59028e-014
rhumerus -58.179 11.6185 -95.3875
rradius 112.59
rwrist -3.20505
rhand -17.1556 28.3278
rfingers 7.12502
rthumb 9.08525 -1.45648
lclavicle 1.59028e-015 1.59028e-014
lhumerus -46.5647 -11.7346 100.191
lradius 102.25
lwrist 30.092
lhand -13.4986 7.48168
lfingers 7.12502
lthumb 12.6126 37.0809
rfemur -47.7304 -3.721 28.6744
rtibia 35.8281
rfoot -1.28637 1.87759
rtoes -5.54864
lfemur 8.68326 0.495432 -32.6556
ltibia 36.1361
lfoot 12.5341 -1.77021
ltoes -19.36
68
root 5.7683 17.0134 4.36987 -5.3509 -43.4379 25.2994
lowerback 12.6076 -0.424194 -10.814
upperback 0.971127 -2.23454 -1.61625
thorax -5.71831 -0.86655 4.75644
lowerneck -16.6991 -2.06423 -11.716
upperneck 12.2444 -0.707287 4.31768
head 6.52955 -0.532707 3.21811
rclavicle -6.75868e-015 2.54444e-014
rhumerus -57.9372 11.4397 -94.4828
rradius 112.276
rwrist -2.78528
rhand -17.3396 28.4937
rfingers 7.12502
rthumb 8.90763 -1.29829
lclavicle -6.75868e-015 2.54444e-014
lhumerus -47.3111 -11.2194 100.167
lradius 100.771
lwrist 29.623
lhand -14.6011 7.37574
lfingers 7.12502
lthumb 11.5495 37.0375
rfemur -45.8806 -3.41864 28.5168
rtibia 33.8249
rfoot 0.227937 1.31475
rtoes -4.40539
lfemur 7.17175 1.44544 -31.9346
ltibia 40.4316
lfoot 12.3636 0.00935036
ltoes -19.0646
69
root 5.50415 17.0375 4.90677 -5.14388 -43.5958 24.765
lowerback 12.4639 -0.47046 -10.0505
upperback 0.95404 -2.16296 -1.53435
thorax -5.69018 -0.849205 4.40203
lowerneck -16.3536 -2.10556 -11.4059
upperneck 12.07 -0.876723 4.30313
head 6.4273 -0.598906 3.14404
rclavicle -5.04913e-014 3.18055e-015
rhumerus -57.5066 11.5857 -94.3132
rradius 112.012
rwrist -2.8978
rhand -17.2874 28.2617
rfingers 7.12502
rthumb 8.95804 -1.5281
lclavicle -5.04913e-014 3.18055e-015
lhumerus -48.0287 -10.5771 99.4607
lradius 99.2777
lwrist 28.723
lhand -14.9629 7.86323
lfingers 7.12502
lthumb 11.2005 37.5443
rfemur -43.868 -2.94634 28.6124
rtibia 32.5049
rfoot 1.44037 0.511744
rtoes -5.31563
lfemur 5.30252 2.10661 -30.7813
ltibia 44.9977
lfoot 12.3326 2.18783
ltoes -7.81214
70
root 5.23709 17.0469 5.43224 -5.247 -43.4253 24.5803
lowerback 12.2226 -0.500882 -9.58853
upperback 1.22552 -2.09838 -1.62968
thorax -5.29305 -0.858687 4.02117
lowerneck -16.657 -2.26145 -10.5638
upperneck 12.0747 -1.20616 4.03994
head 6.49779 -0.737596 2.88856
rclavicle 8.26944e-014 -5.08889e-014
rhumerus -56.2768 11.5139 -94.1511
rradius 111.475
rwrist -3.29882
rhand -17.5415 28.0345
rfingers 7.12502
rthumb 8.71277 -1.7657
lclavicle 8.26944e-014 -5.08889e-014
lhumerus -48.3294 -10.1486 98.4794
lradius 97.6753
lwrist 27.3752
lhand -14.8507 7.67595
lfingers 7.12502
lthumb 11.3087 37.3511
rfemur -41.9256 -2.73523 28.3322
rtibia 32.0537
rfoot 2.76668 0.63866
rtoes -3.49485
lfemur 3.22966 2.78252 -29.7903
ltibia 49.5408
lfoot 12.8302 3.19497
ltoes -8.58812
71
root 4.97076 17.025 5.95322 -5.59666 -43.0504 24.6025
lowerback 12.0081 -0.429753 -9.39112
upperback 1.54065 -1.93803 -1.71346
thorax -4.86842 -0.81577 3.78716
lowerneck -16.6668 -2.48381 -10.1311
upperneck 12.0131 -1.60935 4.05696
head 6.50545 -0.908243 2.78188
rclavicle 7.95139e-015 1.27222e-014
rhumerus -54.7915 11.2272 -93.8027
rradius 110.654
rwrist -3.80395
rhand -17.6987 27.891
rfingers 7.12502
rthumb 8.56116 -1.91548
lclavicle 7.95139e-015 1.27222e-014
lhumerus -48.6744 -9.93996 97.7473
lradius 96.2536
lwrist 26.6351
lhand -17.299 6.02185
lfingers 7.12502
lthumb 8.94687 35.8122
rfemur -40.1599 -2.91219 28.0362
rtibia 32.4713
rfoot 4.09277 2.13427
rtoes 6.68555
lfemur 1.20953 3.50158 -28.7787
ltibia 53.8889
lfoot 13.2974 3.64094
ltoes -9.66519
72
root 4.70013 16.9837 6.48618 -6.1362 -42.8342 24.7551
lowerback 11.8077 -0.21981 -9.38444
upperback 1.67215 -1.6257 -1.68585
thorax -4.65739 -0.6762 3.75924
lowerneck -15.8131 -2.66691 -10.2817
upperneck 11.7507 -1.96218 4.36512
head 6.30896 -1.06213 2.8709
rclavicle 7.31528e-014 -1.74931e-014
rhumerus -53.716 11.1069 -93.2256
rradius 109.895
rwrist -4.46035
rhand -17.7218 27.6679
rfingers 7.12502
rthumb 8.53886 -2.13942
lclavicle 7.31528e-014 -1.74931e-014
lhumerus -49.5088 -9.65162 97.3224
lradius 95.0229
lwrist 26.5424
lhand -19.6709 4.46866
lfingers 7.12502
lthumb 6.6575 34.344
rfemur -38.3665 -3.09722 27.7319
rtibia 33.7099
rfoot 4.76748 4.2671
rtoes 26.9978
lfemur -0.537457 4.03136 -27.8333
ltibia 57.8672
lfoot 12.4891 5.21821
ltoes -5.59744
73
root 4.42729 16.9367 7.01112 -6.41372 -42.885 24.611
lowerback 11.6768 -0.00649508 -9.20404
upperback 1.67991 -1.29973 -1.61508
thorax -4.6216 -0.519745 3.68207
lowerneck -15.1607 -2.89649 -10.747
upperneck 11.8702 -2.32878 4.91183
head 6.27809 -1.22544 3.09044
rclavicle 4.77083e-015 0
rhumerus -52.958 11.1539 -92.7648
rradius 109.486
rwrist -5.49961
rhand -17.4403 27.321
rfingers 7.12502
rthumb 8.81052 -2.4751
lclavicle 4.77083e-015 0
lhumerus -50.4748 -9.13875 96.7019
lradius 93.9104
lwrist 26.7246
lhand -20.4531 4.51541
lfingers 7.12502
lthumb 5.9024 34.4132
rfemur -36.5015 -3.02275 27.6625
rtibia 35.3671
rfoot 4.78698 5.88104
rtoes 39.5814
lfemur -2.428 4.59189 -26.5998
ltibia 61.5752
lfoot 11.1608 6.16109
ltoes -3.79138
74
root 4.1633 16.8669 7.5232 -6.71391 -43.2519 24.3959
lowerback 11.7516 0.246642 -9.02389
upperback 1.66727 -0.946133 -1.53074
thorax -4.72394 -0.343094 3.61854
lowerneck -14.8569 -3.34003 -11.7044
upperneck 11.9953 -2.90444 5.85328
head 6.34265 -1.47799 3.4969
rclavicle 1.03766e-013 1.11319e-014
rhumerus -51.8687 11.3863 -92.6033
rradius 108.842
rwrist -6.13516
rhand -17.5592 26.921
rfingers 7.12502
rthumb 8.69576 -2.87988
lclavicle 1.03766e-013 1.11319e-014
lhumerus -51.4016 -8.39852 95.7929
lradius 92.8275
lwrist 27.1533
lhand -20.7727 4.36454
lfingers 7.12502
lthumb 5.59381 34.2707
rfemur -34.5673 -2.38074 27.5482
rtibia 37.1613
rfoot -0.749667 0.563293
rtoes 31.626
lfemur -4.2889 5.57749 -25.2389
ltibia 64.9925
lfoot 10.4268 5.02302
ltoes -12.0672
75
root 3.89565 16.7998 8.03906 -6.42295 -43.7333 23.4285
lowerback 11.8641 0.522419 -8.26063
upperback 1.59563 -0.480078 -1.24684
thorax -4.92552 -0.112992 3.42034
lowerneck -15.1116 -3.3546 -11.067
upperneck 12.5776 -2.95388 5.26524
head 6.55828 -1.52798 3.1983
rclavicle -8.22969e-014 7.95139e-015
rhumerus -50.3557 11.5295 -92.3684
rradius 107.827
rwrist -6.37197
rhand -17.5649 26.7945
rfingers 7.12502
rthumb 8.69024 -3.00659
lclavicle -8.22969e-014 7.95139e-015
lhumerus -52.3796 -7.59085 94.9542
lradius 91.8061
lwrist 27.0961
lhand -20.1763 4.74571
lfingers 7.12502
lthumb 6.16964 34.6359
rfemur -32.768 -0.986149 27.7254
rtibia 38.8777
rfoot -5.79056 -6.05671
rtoes 20.3321
lfemur -6.34602 6.52673 -23.2205
ltibia 68.2008
lfoot 9.26213 3.91724
ltoes -16.7216
76
root 3.6263 16.742 8.55581 -5.90251 -43.3753 22.3367
lowerback 12.0627 0.53437 -7.36311
upperback 1.45905 -0.352681 -0.966432
thorax -5.19919 -0.0491297 3.19377
lowerneck -15.2985 -3.69751 -11.3213
upperneck 13.2446 -3.36992 5.35245
head 6.84752 -1.74422 3.22632
rclavicle 7.35503e-014 1.59028e-014
rhumerus -49.0534 11.794 -92.1331
rradius 107.25
rwrist -6.57782
rhand -16.9882 26.5668
rfingers 7.12502
rthumb 9.24668 -3.21044
lclavicle 7.35503e-014 1.59028e-014
lhumerus -53.4565 -6.74514 94.1373
lradius 90.9216
lwrist 26.9435
lhand -18.9533 5.76464
lfingers 7.12502
lthumb 7.35026 35.617
rfemur -31.2805 0.137146 27.7653
rtibia 40.467
rfoot -8.40738 -3.39346
rtoes 28.3872
lfemur -8.93809 6.53387 -21.23
ltibia 71.2913
lfoot 7.3975 4.10698
ltoes -12.0481
77
root 3.36396 16.6803 9.05166 -5.57622 -42.7011 21.5089
lowerback 12.4452 0.388168 -6.87312
upperback 1.30721 -0.491792 -0.553464
thorax -5.55776 -0.105498 3.38106
lowerneck -14.997 -3.85713 -11.9982
upperneck 13.3051 -3.49775 5.48235
head 6.84358 -1.83511 3.36691
rclavicle 4.05521e-014 -2.8625e-014
rhumerus -48.1382 12.7281 -91.7348
rradius 107.326
rwrist -6.67652
rhand -16.6543 26.5589
rfingers 7.12502
rthumb 9.56887 -3.2038
lclavicle 4.05521e-014 -2.8625e-014
lhumerus -54.6992 -5.49134 93.5901
lradius 90.1877
lwrist 27.3543
lhand -19.7394 5.40905
lfingers 7.12502
lthumb 6.59143 35.2865
rfemur -29.7127 0.938956 27.7487
rtibia 41.9063
rfoot -11.1119 -8.21489
rtoes 23.647
lfemur -11.9666 6.25474 -19.5173
ltibia 74.2166
lfoot 6.01191 3.28981
ltoes -11.063
